<svg
    width="134"
    height="750"
    viewBox="0 0 134 950"
    fill="none"
    xmlns="http://www.w3.org/2000/svg"
>
<g clip-path="url(#clip0_203_93)">
<path d="M131.995 485.749C131.995 495.367 132.077 504.69 131.879 514.014C131.879 515.087 130.419 516.4 129.328 517.151C108.314 531.734 87.269 546.262 66.1919 560.735C65.1892 561.419 64.2001 562.143 62.3039 563.469L131.763 563.469L131.763 599.383L0.4367 599.383C0.4367 593.785 0.4367 588.364 0.4367 582.944C0.436699 578.391 -0.886589 573.094 0.996027 569.512C2.87864 565.93 7.97399 564.043 11.7256 561.46C29.856 549.105 48.0023 536.767 66.1646 524.445C67.3948 523.698 68.4047 522.636 69.0908 521.369L0.682256 521.369L0.682254 485.749L131.995 485.749Z" fill="white"/>
<path d="M133.461 381.035C133.461 396.176 134.143 411.364 133.304 426.457C131.824 452.323 113.728 469.692 87.91 471.196C80.2567 471.647 72.6853 471.196 65.3049 468.927C46.0831 463.109 33.0344 446.943 32.5024 426.546C31.7793 399.006 31.8202 371.445 31.8202 343.89C31.8555 337.981 32.5025 332.092 33.7506 326.316C37.9933 306.165 53.8523 292.302 74.3974 290.142C82.3849 289.302 90.2769 289.459 98.087 291.427C118.311 296.465 132.254 312.413 133.25 333.261C134.007 349.161 133.4 365.122 133.4 381.055L133.461 381.035ZM108.837 382.019C108.837 376.667 108.926 371.315 108.837 365.962C108.748 360.61 108.537 355.026 108.1 349.625C106.927 335.148 99.3625 326.658 85.3043 324.183C77.883 322.878 71.2461 325.011 65.8028 330.185C58.0677 337.533 56.4102 347.274 56.3625 357.268C56.267 375.929 56.417 394.603 57.0446 413.251C57.4266 424.099 63.9271 436.95 78.0808 438.932C87.4871 440.245 95.6382 438.249 101.811 430.244C107.166 423.306 108.51 415.281 108.769 406.962C109.028 398.643 108.837 390.338 108.837 382.019Z" fill="white"/>
<path d="M131.647 950L0.934625 950C0.71635 949.672 0.607213 949.576 0.607213 949.487C0.934624 928.229 -0.190855 906.82 1.97143 885.746C4.98634 856.052 28.0279 836.044 57.7678 834.185C68.0472 833.542 78.2311 833.83 88.183 836.55C112.446 843.167 129.532 862.751 131.094 888.056C132.329 908.467 131.647 928.994 131.858 949.474C131.81 949.657 131.739 949.834 131.647 950V950ZM30.5176 914.024L101.054 914.024C101.054 906.731 101.805 899.608 100.891 892.704C99.2127 880.038 92.2757 873.462 79.7863 871.104C70.7248 869.38 61.4184 869.403 52.3655 871.172C40.8516 873.401 33.7372 879.922 31.9705 891.159C30.7905 898.603 30.961 906.252 30.5176 914.024Z" fill="white"/>
<path d="M90.9798 720.325L90.9798 784.504C92.9793 784.892 95.0371 784.864 97.0253 784.422C99.0135 783.979 100.89 783.131 102.537 781.931C104.184 780.731 105.568 779.204 106.601 777.445C107.635 775.687 108.296 773.734 108.544 771.708C109.526 764.476 108.326 757.811 101.341 753.559C100.999 753.311 100.713 752.992 100.504 752.625C100.295 752.257 100.166 751.848 100.127 751.427C100.052 741.31 100.072 731.193 100.072 720.728C107.408 721.667 114.256 724.918 119.628 730.011C125.986 735.931 129.785 743.388 131.804 751.714C134.51 762.589 134.568 773.957 131.974 784.859C127.459 803.787 113.012 816.672 93.6741 819.201C83.6471 820.507 73.7293 820.309 64.0365 817.117C45.9675 811.17 33.5804 795.66 32.5641 776.602C32.1685 769.192 32.3799 761.42 34.1943 754.298C39.0714 735.158 52.4748 724.768 71.4988 721.583C77.7128 720.537 84.1314 720.721 90.9798 720.325ZM71.1509 784.832L71.1509 753.723C63.6477 753.368 57.6247 759.431 57.0381 767.784C56.3969 776.848 62.1744 783.978 71.1509 784.818L71.1509 784.832Z" fill="white"/>
<path d="M100.079 107.496C109.942 109.171 117.657 113.552 123.455 121.065C132.281 132.5 134.43 145.857 133.591 159.795C133.249 165.35 132.234 170.843 130.569 176.152C126.408 189.325 117.609 198.47 104.649 203.173C91.4194 208.097 76.9012 208.302 63.5384 203.754C43.1979 196.994 31.6566 178.928 32.1614 155.379C32.7821 126.67 51.1922 108.214 79.9089 107.53C83.5036 107.448 87.0983 107.53 90.9727 107.53L90.9727 171.231C97.4391 172.755 104.574 169.043 107.343 162.878C110.501 155.919 108.946 144.1 101.477 140.423C101.121 140.2 100.819 139.901 100.594 139.546C100.368 139.191 100.225 138.79 100.174 138.372C100.052 128.269 100.079 118.112 100.079 107.496ZM71.1234 140.478C63.2655 140.43 57.3721 146.63 57.0174 155.085C56.6422 164.094 62.4743 171.067 71.1234 171.627L71.1234 140.478Z" fill="white"/>
<path d="M65.5508 2.90505L65.5508 6.96542C65.5508 14.4845 65.4962 22.0037 65.5508 29.5228C65.5849 32.8244 65.6804 35.2647 61.5468 37.0419C55.0395 39.8787 53.5798 52.9961 58.4841 58.2322C61.349 61.3013 66.0692 60.0845 67.5494 55.45C68.9613 51.0343 69.5548 46.3656 70.5711 41.82C72.3241 33.9522 73.3814 25.8315 76.028 18.2851C82.9241 -1.18946 104.138 -6.00853 119.39 8.03172C124.656 12.9577 128.495 19.219 130.501 26.1528C135.169 40.9309 135.103 56.8029 130.31 71.541C126.081 84.7063 117.643 94.0232 103.51 97.0035C102.535 97.2085 101.525 97.2564 100.291 97.4067C100.188 96.3062 100.031 95.4382 100.031 94.57C100.031 84.7747 100.031 74.9793 99.9904 65.1771C99.9904 63.2495 100.543 62.4019 102.405 61.4107C104.757 60.1252 106.702 58.2046 108.019 55.867C110.488 51.2735 110.338 46.2083 108.831 41.2594C108.026 38.6277 106.641 36.4198 103.449 36.3856C100.427 36.3856 98.7831 38.4364 98.1487 40.8972C96.689 46.6117 95.6999 52.4492 94.3767 58.1979C92.8692 64.7191 91.7846 71.4247 89.4791 77.6588C85.6525 87.9736 78.0675 94.2555 66.799 95.1032C55.2032 95.9781 45.8447 91.8699 39.5761 81.7601C34.2625 73.1883 32.5231 63.6185 32.1753 53.7343C31.766 42.0045 32.68 30.4934 38.3824 19.9051C43.1572 11.0189 50.3466 5.15396 60.4691 3.34254C62.072 3.07595 63.6136 3.06911 65.5508 2.90505Z" fill="white"/>
<path d="M33.3347 716.709L33.3347 708.076C33.3347 699.647 33.4097 691.219 33.2801 682.784C33.2392 680.433 33.894 679.469 36.295 678.895C56.4786 674.062 76.628 669.058 96.7843 664.102C97.3095 663.973 97.8279 663.795 98.3463 663.644L98.4964 662.735L33.4915 646.774L33.4915 609.821C34.3794 609.934 35.2589 610.106 36.1245 610.334C67.1968 620.774 98.269 631.212 129.341 641.648C131.435 642.331 132.07 643.343 132.07 645.517C131.961 657.356 132.002 669.202 132.036 681.062C132.036 682.757 131.954 683.939 129.907 684.623C98.1531 695.209 66.4305 705.856 34.7398 716.565C34.2758 716.65 33.8061 716.698 33.3347 716.709Z" fill="white"/>
<path d="M58.9549 269.178L58.9549 281.708L33.4236 281.708L33.4236 269.246L10.0137 269.246L10.0137 233.818L33.2053 233.818L33.2053 217.016L59.0095 217.016L59.0095 233.633L63.0339 233.633C74.6297 233.633 86.2256 233.633 97.8214 233.633C105.379 233.633 107.003 231.767 106.102 224.125C105.959 222.894 105.741 221.671 105.495 220.023C109.588 219.176 113.68 218.342 117.773 217.494C121.866 216.647 125.958 215.778 130.351 214.856C133.939 227.775 135.392 240.53 130.597 253.21C126.825 263.19 119.001 268.453 108.599 268.829C93.5923 269.376 78.586 269.096 63.5796 269.164C62.2222 269.178 60.8784 269.178 58.9549 269.178Z" fill="white"/>
</g>
<defs>
<clipPath id="clip0_203_93">
<rect
    width="950"
    height="134"
    fill="white"
    transform="translate(0 950) rotate(-90)"
/>
</clipPath>
</defs>
</svg>
