<svg width="19" height="5" viewBox="0 0 19 5" fill="none" xmlns="http://www.w3.org/2000/svg">
<path d="M2.50487 0C1.20883 0 0.148438 1.09601 0.148438 2.43558C0.148438 3.77515 1.20883 4.87116 2.50487 4.87116C3.80091 4.87116 4.86131 3.77515 4.86131 2.43558C4.86131 1.09601 3.80091 0 2.50487 0ZM16.6435 0C15.3474 0 14.2871 1.09601 14.2871 2.43558C14.2871 3.77515 15.3474 4.87116 16.6435 4.87116C17.9395 4.87116 18.9999 3.77515 18.9999 2.43558C18.9999 1.09601 17.9395 0 16.6435 0ZM9.57418 0C8.27814 0 7.21774 1.09601 7.21774 2.43558C7.21774 3.77515 8.27814 4.87116 9.57418 4.87116C10.8702 4.87116 11.9306 3.77515 11.9306 2.43558C11.9306 1.09601 10.8702 0 9.57418 0Z" />
</svg>
