<svg viewBox="0 0 16 17" fill="none" xmlns="http://www.w3.org/2000/svg">
<path d="M11.4351 10.6918H10.7124L10.4563 10.4294C11.3528 9.32133 11.8925 7.88279 11.8925 6.3179C11.8925 2.82847 9.23042 0 5.94625 0C2.66209 0 0 2.82847 0 6.3179C0 9.80732 2.66209 12.6358 5.94625 12.6358C7.4191 12.6358 8.77301 12.0623 9.81589 11.1098L10.0629 11.3819V12.1498L14.6369 17L16 15.5517L11.4351 10.6918ZM5.94625 10.6918C3.66838 10.6918 1.82962 8.73814 1.82962 6.3179C1.82962 3.89766 3.66838 1.94397 5.94625 1.94397C8.22413 1.94397 10.0629 3.89766 10.0629 6.3179C10.0629 8.73814 8.22413 10.6918 5.94625 10.6918Z" />
</svg>
